<svg width="34" height="33" viewBox="0 0 34 33" fill="none" xmlns="http://www.w3.org/2000/svg">
<path d="M25.993 12.0149C25.5434 12.0149 25.1789 12.3944 25.1789 12.8624V28.3388C25.1789 29.9743 23.9004 31.3051 22.3294 31.3051H4.47771C2.90671 31.3051 1.62828 29.9742 1.62828 28.3388V9.75455C1.62828 8.11909 2.90671 6.78828 4.47771 6.78828H22.3294C22.779 6.78828 23.1435 6.40881 23.1435 5.94077C23.1435 5.47273 22.779 5.09326 22.3294 5.09326H4.47771C2.00866 5.09326 0 7.18427 0 9.75455V28.3388C0 30.909 2.00866 33.0001 4.47771 33.0001H22.3294C24.7984 33.0001 26.8071 30.909 26.8071 28.3388V12.8625C26.8071 12.3945 26.4426 12.0149 25.993 12.0149Z" fill="black"/>
<path d="M32.7889 0.76614C31.8074 -0.255588 30.2106 -0.255172 29.23 0.76614L15.285 15.2836C15.2664 15.3031 15.0561 15.5307 15.0016 15.6582L13.0705 20.1747C12.9333 20.4953 13.0001 20.8707 13.2386 21.1187C13.3944 21.2808 13.6027 21.3669 13.8146 21.3669C13.9262 21.3669 14.0387 21.3429 14.1453 21.2935L18.4838 19.2832C18.6058 19.2266 18.8248 19.0076 18.8436 18.9882L32.7889 4.47115C33.2643 3.97619 33.5263 3.31824 33.5263 2.61844C33.5263 1.91871 33.2643 1.26062 32.7889 0.76614ZM31.6377 3.27229L17.6923 17.7898C17.69 17.7923 17.6887 17.7952 17.6864 17.7972L15.4202 18.8475L16.429 16.4883C16.431 16.4858 16.4338 16.4845 16.4362 16.4821L30.3812 1.96466C30.7171 1.6149 31.3026 1.61531 31.6377 1.965C31.8056 2.13923 31.8981 2.37141 31.8981 2.61844C31.8981 2.86547 31.8055 3.09758 31.6377 3.27229Z" fill="black"/>
</svg>
