<svg width="35" height="35" viewBox="0 0 35 35" fill="none" xmlns="http://www.w3.org/2000/svg">
<path id="Subtract" fill-rule="evenodd" clip-rule="evenodd" d="M35 17.5C35 27.165 27.165 35 17.5 35C7.83496 35 0 27.165 0 17.5C0 7.83496 7.83496 0 17.5 0C27.165 0 35 7.83496 35 17.5ZM10.3057 9.27979C10.6895 8.88232 11.3105 8.88232 11.6943 9.27979L18 15.8232L24.3057 9.27979C24.6895 8.88232 25.3105 8.88232 25.6943 9.27979C26.0771 9.67773 26.0771 10.3223 25.6943 10.7202L19.3877 17.2637L25.6934 23.8066C26.0771 24.2046 26.0771 24.8491 25.6934 25.2471C25.5322 25.4141 25.3291 25.5107 25.1201 25.5376C24.8311 25.5742 24.5283 25.4775 24.3057 25.2471L18 18.7041L11.6943 25.2471C11.3105 25.6445 10.6895 25.6445 10.3066 25.2471C9.92285 24.8491 9.92285 24.2046 10.3066 23.8066L16.6123 17.2637L10.3057 10.7202C9.92285 10.3223 9.92285 9.67773 10.3057 9.27979Z" fill="#D5DDD9"/>
</svg>
