<svg width="47" height="52" viewBox="0 0 47 52" fill="none" xmlns="http://www.w3.org/2000/svg">
<g id="notifications" filter="url(#filter0_d_212_527)">
<g id="Vector">
<path d="M22.6646 43.0173C22.5163 42.9386 22.3546 42.9144 22.1932 42.8901C22.0944 42.8753 21.9957 42.8605 21.9002 42.8332C19.3869 42.0789 17.8155 40.4468 17.2879 37.8583C17.225 37.553 17.1195 37.4599 16.8064 37.4621C14.1737 37.4748 11.5419 37.4767 8.91077 37.4677C6.05966 37.4599 3.90448 35.2138 4.00326 32.3671C4.08071 30.1143 5.9766 28.0849 8.25973 27.811C8.37198 27.7975 8.48423 27.7863 8.59648 27.775C9.51804 27.6841 9.55172 27.6471 9.55172 26.7367C9.55172 25.9075 9.54648 25.0783 9.54125 24.2491C9.52969 22.4181 9.51813 20.5873 9.56294 18.757C9.71111 12.7977 12.5476 8.56368 17.9142 6.00441C18.0036 5.96183 18.1062 5.92943 18.2079 5.8973C18.4066 5.83455 18.6019 5.77284 18.6888 5.63848C18.7785 5.49964 18.7508 5.28845 18.7229 5.07513C18.7099 4.97631 18.6969 4.87702 18.6955 4.78427C18.6878 4.13891 18.8123 3.49881 19.0614 2.90339C19.3105 2.30798 19.6788 1.76987 20.1437 1.3222C20.6086 0.874536 21.1603 0.526798 21.7647 0.300407C22.3691 0.0740171 23.0134 -0.02623 23.658 0.00584101C26.3711 0.11809 28.405 2.51348 28.1165 5.29388C28.0851 5.60256 28.1569 5.71369 28.4353 5.83716C33.5666 8.11731 36.4951 12.0438 37.221 17.6165C37.3162 18.349 37.3071 19.084 37.2981 19.8186C37.295 20.0635 37.292 20.3083 37.2929 20.553C37.2988 21.9441 37.2969 23.3348 37.2949 24.7253C37.2939 25.4205 37.2929 26.1157 37.2929 26.8108C37.2929 27.6157 37.3658 27.6965 38.1527 27.7661C40.5099 27.9737 42.362 29.562 42.7616 31.7329C42.8912 32.4302 42.8662 33.1475 42.6884 33.8341C42.5105 34.5206 42.1842 35.1598 41.7323 35.7065C41.2805 36.2532 40.7142 36.694 40.0734 36.998C39.4325 37.3019 38.7328 37.4615 38.0236 37.4655C35.3644 37.4834 32.7041 37.4756 30.0438 37.4655C29.7071 37.4655 29.6027 37.5699 29.5488 37.8943C29.1256 40.4524 26.9772 42.5515 24.4146 42.9454C24.3401 42.9566 24.27 42.9767 24.1999 42.9968C24.1643 43.007 24.1287 43.0172 24.0924 43.0263L22.6646 43.0173ZM23.3965 34.6963H37.844C39.0664 34.6963 39.9891 33.8948 40.0609 32.7948C40.1384 31.6218 39.3459 30.7126 38.0988 30.5498C37.9777 30.5342 37.855 30.5262 37.7324 30.5182C37.5469 30.5061 37.3615 30.4941 37.1817 30.4555C35.5923 30.1188 34.5271 28.7954 34.5203 27.1363C34.5113 24.4761 34.5113 21.8161 34.5203 19.1566C34.5294 17.6989 34.2664 16.2523 33.7447 14.8911C31.3482 8.65236 24.299 5.81247 18.4396 8.83532C14.5389 10.8468 12.4713 14.1548 12.3456 18.5628C12.2932 20.4194 12.3049 22.2783 12.3166 24.1374C12.323 25.1491 12.3293 26.1608 12.3254 27.1723C12.3348 27.9502 12.07 28.7067 11.5774 29.3089C11.0847 29.9111 10.3958 30.3206 9.63141 30.4656C9.44459 30.5022 9.25375 30.5158 9.06278 30.5295C8.89002 30.5418 8.71716 30.5542 8.54709 30.5835C7.08224 30.8383 6.31222 32.4221 7.0553 33.6614C7.49869 34.4011 8.17779 34.7019 9.03201 34.7008C13.8205 34.6963 18.6087 34.6955 23.3965 34.6985V34.6963ZM23.4234 37.4688C23.0829 37.4688 22.7424 37.4697 22.4019 37.4706C21.721 37.4723 21.04 37.4741 20.359 37.4688C20.0885 37.4688 20.0223 37.5238 20.1031 37.8C20.5218 39.2109 21.9114 40.2448 23.4178 40.2459C24.1573 40.2412 24.8764 40.0025 25.472 39.5642C26.0676 39.1259 26.5092 38.5103 26.7336 37.8056C26.8133 37.5418 26.7718 37.4688 26.4878 37.4688C25.7807 37.4766 25.0735 37.4747 24.3664 37.4728C24.052 37.4719 23.7377 37.4711 23.4234 37.4711V37.4688ZM23.4234 2.77389C22.3671 2.77389 21.4703 3.64494 21.4647 4.6709C21.4647 4.87968 21.4759 5.00764 21.7565 4.97509C22.8531 4.82506 23.9648 4.82166 25.0622 4.96499C25.3586 5.0054 25.3799 4.86284 25.3743 4.6361C25.3496 3.62811 24.4651 2.77838 23.4245 2.77614L23.4234 2.77389Z" fill="white"/>
<path d="M22.6646 43.0173C22.5163 42.9386 22.3546 42.9144 22.1932 42.8901C22.0944 42.8753 21.9957 42.8605 21.9002 42.8332C19.3869 42.0789 17.8155 40.4468 17.2879 37.8583C17.225 37.553 17.1195 37.4599 16.8064 37.4621C14.1737 37.4748 11.5419 37.4767 8.91077 37.4677C6.05966 37.4599 3.90448 35.2138 4.00326 32.3671C4.08071 30.1143 5.9766 28.0849 8.25973 27.811C8.37198 27.7975 8.48423 27.7863 8.59648 27.775C9.51804 27.6841 9.55172 27.6471 9.55172 26.7367C9.55172 25.9075 9.54648 25.0783 9.54125 24.2491C9.52969 22.4181 9.51813 20.5873 9.56294 18.757C9.71111 12.7977 12.5476 8.56368 17.9142 6.00441C18.0036 5.96183 18.1062 5.92943 18.2079 5.8973C18.4066 5.83455 18.6019 5.77284 18.6888 5.63848C18.7785 5.49964 18.7508 5.28845 18.7229 5.07513C18.7099 4.97631 18.6969 4.87702 18.6955 4.78427C18.6878 4.13891 18.8123 3.49881 19.0614 2.90339C19.3105 2.30798 19.6788 1.76987 20.1437 1.3222C20.6086 0.874536 21.1603 0.526798 21.7647 0.300407C22.3691 0.0740171 23.0134 -0.02623 23.658 0.00584101C26.3711 0.11809 28.405 2.51348 28.1165 5.29388C28.0851 5.60256 28.1569 5.71369 28.4353 5.83716C33.5666 8.11731 36.4951 12.0438 37.221 17.6165C37.3162 18.349 37.3071 19.084 37.2981 19.8186C37.295 20.0635 37.292 20.3083 37.2929 20.553C37.2988 21.9441 37.2969 23.3348 37.2949 24.7253C37.2939 25.4205 37.2929 26.1157 37.2929 26.8108C37.2929 27.6157 37.3658 27.6965 38.1527 27.7661C40.5099 27.9737 42.362 29.562 42.7616 31.7329C42.8912 32.4302 42.8662 33.1475 42.6884 33.8341C42.5105 34.5206 42.1842 35.1598 41.7323 35.7065C41.2805 36.2532 40.7142 36.694 40.0734 36.998C39.4325 37.3019 38.7328 37.4615 38.0236 37.4655C35.3644 37.4834 32.7041 37.4756 30.0438 37.4655C29.7071 37.4655 29.6027 37.5699 29.5488 37.8943C29.1256 40.4524 26.9772 42.5515 24.4146 42.9454C24.3401 42.9566 24.27 42.9767 24.1999 42.9968C24.1643 43.007 24.1287 43.0172 24.0924 43.0263L22.6646 43.0173ZM23.3965 34.6963H37.844C39.0664 34.6963 39.9891 33.8948 40.0609 32.7948C40.1384 31.6218 39.3459 30.7126 38.0988 30.5498C37.9777 30.5342 37.855 30.5262 37.7324 30.5182C37.5469 30.5061 37.3615 30.4941 37.1817 30.4555C35.5923 30.1188 34.5271 28.7954 34.5203 27.1363C34.5113 24.4761 34.5113 21.8161 34.5203 19.1566C34.5294 17.6989 34.2664 16.2523 33.7447 14.8911C31.3482 8.65236 24.299 5.81247 18.4396 8.83532C14.5389 10.8468 12.4713 14.1548 12.3456 18.5628C12.2932 20.4194 12.3049 22.2783 12.3166 24.1374C12.323 25.1491 12.3293 26.1608 12.3254 27.1723C12.3348 27.9502 12.07 28.7067 11.5774 29.3089C11.0847 29.9111 10.3958 30.3206 9.63141 30.4656C9.44459 30.5022 9.25375 30.5158 9.06278 30.5295C8.89002 30.5418 8.71716 30.5542 8.54709 30.5835C7.08224 30.8383 6.31222 32.4221 7.0553 33.6614C7.49869 34.4011 8.17779 34.7019 9.03201 34.7008C13.8205 34.6963 18.6087 34.6955 23.3965 34.6985V34.6963ZM23.4234 37.4688C23.0829 37.4688 22.7424 37.4697 22.4019 37.4706C21.721 37.4723 21.04 37.4741 20.359 37.4688C20.0885 37.4688 20.0223 37.5238 20.1031 37.8C20.5218 39.2109 21.9114 40.2448 23.4178 40.2459C24.1573 40.2412 24.8764 40.0025 25.472 39.5642C26.0676 39.1259 26.5092 38.5103 26.7336 37.8056C26.8133 37.5418 26.7718 37.4688 26.4878 37.4688C25.7807 37.4766 25.0735 37.4747 24.3664 37.4728C24.052 37.4719 23.7377 37.4711 23.4234 37.4711V37.4688ZM23.4234 2.77389C22.3671 2.77389 21.4703 3.64494 21.4647 4.6709C21.4647 4.87968 21.4759 5.00764 21.7565 4.97509C22.8531 4.82506 23.9648 4.82166 25.0622 4.96499C25.3586 5.0054 25.3799 4.86284 25.3743 4.6361C25.3496 3.62811 24.4651 2.77838 23.4245 2.77614L23.4234 2.77389Z" stroke="white"/>
</g>
</g>
<defs>
<filter id="filter0_d_212_527" x="0" y="0" width="46.8428" height="51.0264" filterUnits="userSpaceOnUse" color-interpolation-filters="sRGB">
<feFlood flood-opacity="0" result="BackgroundImageFix"/>
<feColorMatrix in="SourceAlpha" type="matrix" values="0 0 0 0 0 0 0 0 0 0 0 0 0 0 0 0 0 0 127 0" result="hardAlpha"/>
<feOffset dy="4"/>
<feGaussianBlur stdDeviation="2"/>
<feComposite in2="hardAlpha" operator="out"/>
<feColorMatrix type="matrix" values="0 0 0 0 0 0 0 0 0 0 0 0 0 0 0 0 0 0 0.25 0"/>
<feBlend mode="normal" in2="BackgroundImageFix" result="effect1_dropShadow_212_527"/>
<feBlend mode="normal" in="SourceGraphic" in2="effect1_dropShadow_212_527" result="shape"/>
</filter>
</defs>
</svg>
