<svg width="51" height="50" viewBox="0 0 51 50" fill="none" xmlns="http://www.w3.org/2000/svg">
<g filter="url(#filter0_d_212_429)">
<path fill-rule="evenodd" clip-rule="evenodd" d="M4.80566 21C4.80566 15.4305 7.01816 10.089 10.9564 6.15076C14.8947 2.21249 20.2361 0 25.8057 0C31.3752 0 36.7166 2.21249 40.6549 6.15076C44.5932 10.089 46.8057 15.4305 46.8057 21C46.8057 26.5695 44.5932 31.911 40.6549 35.8492C36.7166 39.7875 31.3752 42 25.8057 42C20.2361 42 14.8947 39.7875 10.9564 35.8492C7.01816 31.911 4.80566 26.5695 4.80566 21ZM25.8057 3.01223C22.3191 3.01235 18.9078 4.02571 15.9866 5.92903C13.0655 7.83236 10.7604 10.5436 9.35182 13.7329C7.94326 16.9223 7.49193 20.4522 8.05273 23.8933C8.61354 27.3345 10.1623 30.5384 12.5106 33.1155C13.9363 30.8825 15.9018 29.0448 18.2256 27.7724C20.5493 26.4999 23.1563 25.8338 25.8057 25.8354C28.455 25.8335 31.0622 26.4995 33.386 27.772C35.7098 29.0445 37.6753 30.8823 39.1007 33.1155C41.449 30.5384 42.9978 27.3345 43.5586 23.8933C44.1194 20.4522 43.6681 16.9223 42.2595 13.7329C40.851 10.5436 38.5459 7.83236 35.6247 5.92903C32.7035 4.02571 29.2922 3.01235 25.8057 3.01223ZM36.8463 35.2019C35.7242 33.2681 34.1137 31.6632 32.1759 30.5479C30.2382 29.4327 28.0414 28.8464 25.8057 28.8477C23.5699 28.8464 21.3731 29.4327 19.4354 30.5479C17.4977 31.6632 15.8871 33.2681 14.765 35.2019C17.9192 37.6613 21.8059 38.9941 25.8057 38.9878C29.9657 38.9878 33.796 37.5736 36.8463 35.2019ZM18.3544 17.8451C18.3544 15.8689 19.1394 13.9736 20.5368 12.5762C21.9342 11.1788 23.8295 10.3938 25.8057 10.3938C27.7819 10.3938 29.6771 11.1788 31.0745 12.5762C32.4719 13.9736 33.257 15.8689 33.257 17.8451C33.257 19.8213 32.4719 21.7166 31.0745 23.114C29.6771 24.5113 27.7819 25.2964 25.8057 25.2964C23.8295 25.2964 21.9342 24.5113 20.5368 23.114C19.1394 21.7166 18.3544 19.8213 18.3544 17.8451ZM25.8057 13.406C25.2227 13.406 24.6455 13.5208 24.1069 13.7439C23.5683 13.967 23.079 14.294 22.6668 14.7062C22.2546 15.1184 21.9276 15.6078 21.7045 16.1463C21.4814 16.6849 21.3666 17.2621 21.3666 17.8451C21.3666 18.428 21.4814 19.0053 21.7045 19.5438C21.9276 20.0824 22.2546 20.5718 22.6668 20.984C23.079 21.3962 23.5683 21.7232 24.1069 21.9463C24.6455 22.1693 25.2227 22.2842 25.8057 22.2842C26.983 22.2842 28.1121 21.8165 28.9446 20.984C29.7771 20.1515 30.2447 19.0224 30.2447 17.8451C30.2447 16.6678 29.7771 15.5387 28.9446 14.7062C28.1121 13.8737 26.983 13.406 25.8057 13.406Z" fill="#F8F8F8"/>
</g>
<defs>
<filter id="filter0_d_212_429" x="0.805664" y="0" width="50" height="50" filterUnits="userSpaceOnUse" color-interpolation-filters="sRGB">
<feFlood flood-opacity="0" result="BackgroundImageFix"/>
<feColorMatrix in="SourceAlpha" type="matrix" values="0 0 0 0 0 0 0 0 0 0 0 0 0 0 0 0 0 0 127 0" result="hardAlpha"/>
<feOffset dy="4"/>
<feGaussianBlur stdDeviation="2"/>
<feComposite in2="hardAlpha" operator="out"/>
<feColorMatrix type="matrix" values="0 0 0 0 0 0 0 0 0 0 0 0 0 0 0 0 0 0 0.25 0"/>
<feBlend mode="normal" in2="BackgroundImageFix" result="effect1_dropShadow_212_429"/>
<feBlend mode="normal" in="SourceGraphic" in2="effect1_dropShadow_212_429" result="shape"/>
</filter>
</defs>
</svg>
