<svg width="66" height="66" viewBox="0 0 66 66" fill="none" xmlns="http://www.w3.org/2000/svg">
<path id="Vector" fill-rule="evenodd" clip-rule="evenodd" d="M37.125 4.125C37.125 3.03098 36.6904 1.98177 35.9168 1.20818C35.1432 0.434596 34.094 0 33 0C31.906 0 30.8568 0.434596 30.0832 1.20818C29.3096 1.98177 28.875 3.03098 28.875 4.125V28.875H4.125C3.03098 28.875 1.98177 29.3096 1.20818 30.0832C0.434596 30.8568 0 31.906 0 33C0 34.094 0.434596 35.1432 1.20818 35.9168C1.98177 36.6904 3.03098 37.125 4.125 37.125H28.875V61.875C28.875 62.969 29.3096 64.0182 30.0832 64.7918C30.8568 65.5654 31.906 66 33 66C34.094 66 35.1432 65.5654 35.9168 64.7918C36.6904 64.0182 37.125 62.969 37.125 61.875V37.125H61.875C62.969 37.125 64.0182 36.6904 64.7918 35.9168C65.5654 35.1432 66 34.094 66 33C66 31.906 65.5654 30.8568 64.7918 30.0832C64.0182 29.3096 62.969 28.875 61.875 28.875H37.125V4.125Z" fill="#F8F8F8"/>
</svg>
